<svg width="64" height="50" viewBox="0 0 64 50" fill="none" xmlns="http://www.w3.org/2000/svg">
<path d="M60.5 1.5979L59.5473 2.75654L60.5 1.5979ZM59.2899 14.9861C58.9519 15.7425 59.291 16.6296 60.0474 16.9676C60.8037 17.3056 61.6909 16.9664 62.0288 16.2101L60.6594 15.5981L59.2899 14.9861ZM46 8.09811L47.1713 9.03515C47.4751 8.6554 48.3346 8.00478 49.7148 7.20784C51.0278 6.44968 52.6292 5.6606 54.2148 4.96792C55.8031 4.27402 57.3366 3.69389 58.5117 3.34226C59.1058 3.16447 59.5612 3.05951 59.8654 3.01824C60.0205 2.99718 60.0834 3.00031 60.0798 3.00004C60.0756 2.99973 60.0239 2.99614 59.9431 2.97195C59.8651 2.94858 59.7115 2.89154 59.5473 2.75654L60.5 1.5979L61.4527 0.439257C61.0244 0.0871417 60.5357 0.0254368 60.2995 0.00809446C60.0138 -0.0128774 59.7228 0.0100855 59.462 0.0454806C58.9341 0.117106 58.3089 0.271516 57.6517 0.468171C56.3241 0.865422 54.6719 1.49445 53.0138 2.21881C51.3529 2.94439 49.6472 3.78269 48.2147 4.60983C46.8493 5.3982 45.5249 6.29082 44.8287 7.16108L46 8.09811ZM60.5 1.5979L59.5473 2.75654C59.4447 2.67215 59.5059 2.67124 59.6251 2.98854C59.7296 3.26638 59.8329 3.66472 59.9218 4.18216C60.0989 5.21267 60.191 6.54955 60.1929 7.97691C60.1948 9.39823 60.1072 10.8634 59.9414 12.1401C59.7711 13.452 59.5333 14.4415 59.2899 14.9861L60.6594 15.5981L62.0288 16.2101C62.4558 15.2547 62.7367 13.9115 62.9165 12.5263C63.1009 11.1058 63.1949 9.50934 63.1929 7.97292C63.1908 6.44253 63.0935 4.92551 62.8785 3.67426C62.7714 3.05081 62.6282 2.4513 62.4333 1.93286C62.2532 1.45388 61.9623 0.858255 61.4527 0.439256L60.5 1.5979Z" fill="#00182B"/>
<path d="M1.5 35.5979C9 38.2511 9 43.5576 14 46.2109C17.5355 48.087 29.75 50.3641 31 37.0979" stroke="#00182B" stroke-width="3" stroke-linecap="round"/>
<path d="M39.7452 46.5979C38.6574 46.5979 37.7405 46.2239 36.9948 45.4758C36.2495 44.7273 35.8768 43.8071 35.8768 42.7151C35.8768 41.8557 36.1214 41.0958 36.6105 40.4353C37.0997 39.7752 37.7147 39.3074 38.4558 39.0317V23.0379C37.7147 22.7622 37.0997 22.3051 36.6105 21.6666C36.1214 21.0277 35.8768 20.2783 35.8768 19.4185C35.8768 18.327 36.2495 17.407 36.9948 16.6585C37.7405 15.91 38.6574 15.5357 39.7452 15.5357C40.8327 15.5357 41.7493 15.91 42.495 16.6585C43.2408 17.407 43.6137 18.327 43.6137 19.4185C43.6137 20.2783 43.3689 21.0277 42.8793 21.6666C42.3902 22.3051 41.7753 22.7622 41.0347 23.0379V32.6199L51.2512 29.1902C51.5817 29.0909 51.8461 28.9084 52.0442 28.6427C52.2428 28.3774 52.3421 28.0622 52.3421 27.6972V23.0379C51.6015 22.7622 50.9864 22.3051 50.4969 21.6666C50.0077 21.0277 49.7632 20.2783 49.7632 19.4185C49.7632 18.327 50.136 17.407 50.8818 16.6585C51.6271 15.91 52.5437 15.5357 53.6316 15.5357C54.7195 15.5357 55.6361 15.91 56.3814 16.6585C57.1271 17.407 57.5 18.327 57.5 19.4185C57.5 20.2783 57.2554 21.0277 56.7663 21.6666C56.2767 22.3051 55.6616 22.7622 54.9211 23.0379V27.6823C54.9211 28.6047 54.6649 29.4276 54.1525 30.1511C53.6398 30.8746 52.9454 31.3757 52.0694 31.6544L41.0347 35.3185V39.0317C41.7753 39.3074 42.3902 39.7752 42.8793 40.4353C43.3689 41.0958 43.6137 41.8557 43.6137 42.7151C43.6137 43.8071 43.2408 44.7273 42.495 45.4758C41.7493 46.2239 40.8327 46.5979 39.7452 46.5979ZM12.6663 37.8371C11.4791 37.8371 10.4879 37.438 9.69276 36.6399C8.89759 35.8418 8.5 34.8469 8.5 33.6553V5.77964C8.5 4.58806 8.89759 3.59321 9.69276 2.79509C10.4879 1.99696 11.4791 1.5979 12.6663 1.5979H23.7803C24.3356 1.5979 24.8755 1.71072 25.3998 1.93635C25.9238 2.16198 26.3725 2.46225 26.7461 2.83715L30.6693 6.77493H53.6316C53.9986 6.77493 54.3053 6.89853 54.5516 7.14573C54.7979 7.39293 54.9211 7.70075 54.9211 8.06918C54.9211 8.43761 54.7979 8.74543 54.5516 8.99264C54.3053 9.23984 53.9986 9.36344 53.6316 9.36344H29.6325L24.4746 4.18641H12.6663C12.2034 4.18641 11.823 4.33568 11.5251 4.63422C11.2277 4.9332 11.0789 5.315 11.0789 5.77964V33.6553C11.0789 34.12 11.2277 34.5018 11.5251 34.8008C11.823 35.0993 12.2034 35.2486 12.6663 35.2486H28.4372C28.8043 35.2486 31.6318 35.2486 32 35.5002C33 36.0002 32.5 37.5002 32.5 37.5002C32.5 37.5002 31.5 38.0002 28.4372 37.8371H12.6663Z" fill="#00182B"/>
</svg>
